<?xml version="1.0" standalone="no"?>
<!DOCTYPE svg PUBLIC "-//W3C//DTD SVG 20010904//EN"
 "http://www.w3.org/TR/2001/REC-SVG-20010904/DTD/svg10.dtd">
<svg version="1.0" xmlns="http://www.w3.org/2000/svg"
 width="512.000000pt" height="512.000000pt" viewBox="0 0 512.000000 512.000000"
 preserveAspectRatio="xMidYMid meet">

<g transform="translate(0.000000,512.000000) scale(0.100000,-0.100000)"
fill="#000000" stroke="none">
<path d="M1155 5102 c-50 -23 -91 -70 -105 -120 -5 -20 -10 -83 -10 -138 l0
-102 -197 -4 c-222 -5 -279 -18 -403 -85 -100 -55 -217 -179 -269 -284 -83
-169 -76 7 -76 -1999 0 -2003 -6 -1830 75 -1996 74 -152 218 -277 389 -338
l86 -31 1580 -3 c1394 -2 1585 -1 1620 13 31 11 168 142 602 577 l561 563 11
56 c9 40 11 457 9 1505 -4 1626 3 1485 -80 1654 -58 120 -178 239 -298 297
-117 58 -203 73 -405 73 l-165 0 0 103 c0 121 -11 166 -51 212 -87 98 -252 78
-309 -39 -17 -35 -20 -62 -20 -159 l0 -117 -1139 0 -1139 0 -4 128 c-3 116 -5
132 -27 164 -55 79 -153 109 -236 70z m-113 -859 c4 -137 20 -179 80 -223 73
-53 166 -48 235 13 53 47 63 79 63 212 l0 115 1140 0 1140 0 0 -115 c0 -133
10 -165 63 -212 71 -62 168 -65 243 -8 53 40 68 85 72 218 l4 117 159 0 c135
0 166 -3 213 -20 69 -26 130 -85 164 -158 l27 -57 3 -1302 2 -1303 -412 0
c-441 0 -501 -6 -589 -51 -59 -30 -150 -119 -183 -179 -49 -91 -56 -151 -56
-548 l0 -362 -1358 2 -1357 3 -46 23 c-64 31 -117 85 -148 151 l-26 56 0 1755
c0 1667 1 1757 18 1795 29 64 66 111 109 140 72 48 102 54 274 54 l162 1 4
-117z m3408 -3106 c0 -1 -148 -151 -330 -332 l-330 -330 0 313 c0 299 1 313
20 332 19 19 33 20 330 20 171 0 310 -1 310 -3z"/>
<path d="M1363 3385 c-152 -77 -174 -275 -43 -387 197 -170 481 66 353 293
-42 75 -103 112 -192 117 -56 3 -74 -1 -118 -23z"/>
<path d="M2415 3391 c-84 -39 -135 -120 -135 -216 0 -99 51 -176 142 -215 92
-39 190 -19 262 56 109 112 74 304 -68 370 -63 29 -144 32 -201 5z"/>
<path d="M3452 3389 c-211 -107 -151 -428 84 -447 149 -12 263 105 251 256 -6
76 -38 129 -105 177 -37 25 -54 30 -115 33 -58 2 -80 -1 -115 -19z"/>
<path d="M2475 2460 c-122 -19 -202 -122 -193 -253 5 -79 38 -134 105 -177 57
-36 116 -46 185 -30 70 16 148 92 167 163 47 166 -92 322 -264 297z"/>
<path d="M3513 2459 c-58 -11 -96 -32 -135 -79 -110 -127 -57 -319 103 -375
150 -53 309 62 309 222 0 65 -20 117 -63 161 -57 59 -134 85 -214 71z"/>
<path d="M1362 2439 c-111 -55 -160 -202 -105 -314 42 -83 118 -129 213 -129
112 0 194 62 226 171 14 48 15 65 4 110 -15 67 -61 129 -119 160 -59 31 -158
32 -219 2z"/>
<path d="M1400 1505 c-58 -19 -115 -66 -142 -118 -31 -61 -30 -157 2 -217 33
-58 97 -106 163 -120 161 -37 314 116 277 277 -30 135 -172 219 -300 178z"/>
<path d="M2443 1506 c-61 -20 -100 -52 -133 -109 -25 -43 -30 -63 -30 -117 0
-258 342 -327 449 -90 80 176 -101 376 -286 316z"/>
</g>
</svg>
