<?xml version="1.0" standalone="no"?>
<!DOCTYPE svg PUBLIC "-//W3C//DTD SVG 20010904//EN"
 "http://www.w3.org/TR/2001/REC-SVG-20010904/DTD/svg10.dtd">
<svg version="1.0" xmlns="http://www.w3.org/2000/svg"
 width="64.000000pt" height="64.000000pt" viewBox="0 0 64.000000 64.000000"
 preserveAspectRatio="xMidYMid meet">

<g transform="translate(0.000000,64.000000) scale(0.100000,-0.100000)"
fill="#000000" stroke="none">
<path d="M284 540 c-39 -16 -66 -61 -60 -100 12 -78 101 -106 157 -51 47 48
38 116 -21 146 -32 17 -45 18 -76 5z m89 -42 c37 -44 4 -118 -55 -118 -31 0
-78 39 -78 64 0 73 87 109 133 54z"/>
<path d="M93 468 c-68 -33 -40 -138 37 -138 28 0 70 44 70 73 0 51 -61 88
-107 65z m65 -24 c26 -18 28 -50 5 -76 -21 -24 -48 -23 -73 2 -25 25 -25 45 0
70 24 24 38 25 68 4z"/>
<path d="M462 457 c-45 -48 -14 -117 52 -117 25 0 40 7 55 26 26 34 26 54 0
88 -27 34 -77 36 -107 3z m94 -22 c15 -23 15 -27 0 -50 -30 -46 -96 -26 -96
29 0 46 69 61 96 21z"/>
<path d="M267 336 c-21 -8 -46 -21 -55 -29 -13 -12 -22 -13 -36 -5 -34 19
-105 3 -139 -31 -27 -26 -31 -38 -32 -83 l0 -53 65 -3 c48 -2 69 -8 83 -23 16
-17 32 -19 162 -19 151 0 175 4 175 26 0 11 16 14 63 14 72 0 87 10 87 57 0
93 -89 156 -174 123 -20 -7 -33 -5 -58 10 -46 26 -97 32 -141 16z m105 -22
c32 -7 85 -63 94 -98 3 -12 4 -40 2 -62 l-3 -39 -145 0 -145 0 -3 44 c-4 52
10 90 46 124 28 26 86 48 112 41 8 -1 27 -6 42 -10z m216 -48 c19 -18 25 -36
26 -68 l1 -43 -60 0 -60 0 -6 40 c-3 22 -11 51 -18 64 -11 19 -11 25 0 33 24
16 90 1 117 -26z m-424 18 c14 -5 14 -9 1 -34 -8 -16 -15 -45 -15 -65 l0 -35
-65 0 -65 0 0 36 c0 68 80 122 144 98z"/>
</g>
</svg>
